<svg width="72" height="11" viewBox="0 0 72 11" fill="none" xmlns="http://www.w3.org/2000/svg">
<path d="M8.269 0.77C8.43367 0.77 8.55933 0.822 8.646 0.926C8.74133 1.02133 8.789 1.15133 8.789 1.316V9.545C8.789 9.701 8.74567 9.82667 8.659 9.922C8.57233 10.0173 8.451 10.065 8.295 10.065C8.139 10.065 8.022 10.0173 7.944 9.922C7.866 9.82667 7.827 9.701 7.827 9.545V2.902L5.006 8.31C4.88467 8.56133 4.707 8.687 4.473 8.687C4.24767 8.687 4.07 8.56133 3.94 8.31L1.106 2.967V9.545C1.106 9.701 1.06267 9.82667 0.976 9.922C0.898 10.0173 0.781 10.065 0.625 10.065C0.469 10.065 0.347667 10.0173 0.261 9.922C0.174333 9.82667 0.131 9.701 0.131 9.545V1.316C0.131 1.15133 0.178667 1.02133 0.274 0.926C0.369333 0.822 0.499333 0.77 0.664 0.77C0.880667 0.77 1.054 0.895666 1.184 1.147L4.486 7.478L7.749 1.147C7.81833 1.00833 7.892 0.913 7.97 0.861C8.05667 0.800333 8.15633 0.77 8.269 0.77ZM11.4387 10.065C11.2827 10.065 11.1527 10.0217 11.0487 9.935C10.9533 9.83967 10.9057 9.70967 10.9057 9.545V4.059C10.9057 3.89433 10.9533 3.76867 11.0487 3.682C11.1527 3.58667 11.2827 3.539 11.4387 3.539C11.5947 3.539 11.7203 3.58667 11.8157 3.682C11.911 3.76867 11.9587 3.89433 11.9587 4.059V9.545C11.9587 9.71833 11.911 9.84833 11.8157 9.935C11.7203 10.0217 11.5947 10.065 11.4387 10.065ZM11.4387 2.174C11.2307 2.174 11.0617 2.11333 10.9317 1.992C10.8017 1.87067 10.7367 1.71033 10.7367 1.511C10.7367 1.32033 10.8017 1.16433 10.9317 1.043C11.0617 0.921667 11.2307 0.861 11.4387 0.861C11.6467 0.861 11.8157 0.921667 11.9457 1.043C12.0757 1.16433 12.1407 1.32033 12.1407 1.511C12.1407 1.71033 12.0757 1.87067 11.9457 1.992C11.8157 2.11333 11.6467 2.174 11.4387 2.174ZM17.1121 3.513C18.6288 3.513 19.3871 4.34933 19.3871 6.022V9.545C19.3871 9.70967 19.3395 9.83967 19.2441 9.935C19.1575 10.0217 19.0318 10.065 18.8671 10.065C18.7025 10.065 18.5725 10.0217 18.4771 9.935C18.3818 9.83967 18.3341 9.70967 18.3341 9.545V6.087C18.3341 5.49767 18.2171 5.06867 17.9831 4.8C17.7578 4.53133 17.3938 4.397 16.8911 4.397C16.3105 4.397 15.8468 4.57467 15.5001 4.93C15.1535 5.28533 14.9801 5.76633 14.9801 6.373V9.545C14.9801 9.70967 14.9325 9.83967 14.8371 9.935C14.7505 10.0217 14.6248 10.065 14.4601 10.065C14.2955 10.065 14.1655 10.0217 14.0701 9.935C13.9748 9.83967 13.9271 9.70967 13.9271 9.545V4.059C13.9271 3.903 13.9748 3.77733 14.0701 3.682C14.1655 3.58667 14.2955 3.539 14.4601 3.539C14.6161 3.539 14.7375 3.58667 14.8241 3.682C14.9195 3.77733 14.9671 3.89867 14.9671 4.046V4.709C15.1751 4.319 15.4655 4.02433 15.8381 3.825C16.2108 3.617 16.6355 3.513 17.1121 3.513ZM24.5138 3.513C25.2592 3.513 25.8225 3.72533 26.2038 4.15C26.5852 4.566 26.7758 5.19 26.7758 6.022V9.545C26.7758 9.70967 26.7282 9.83967 26.6328 9.935C26.5375 10.0217 26.4118 10.065 26.2558 10.065C26.0912 10.065 25.9612 10.0217 25.8658 9.935C25.7705 9.83967 25.7228 9.70967 25.7228 9.545V6.048C25.7228 5.48467 25.6058 5.06867 25.3718 4.8C25.1465 4.53133 24.7825 4.397 24.2798 4.397C23.6992 4.397 23.2355 4.57467 22.8888 4.93C22.5422 5.28533 22.3688 5.76633 22.3688 6.373V9.545C22.3688 9.70967 22.3212 9.83967 22.2258 9.935C22.1392 10.0217 22.0135 10.065 21.8488 10.065C21.6842 10.065 21.5542 10.0217 21.4588 9.935C21.3635 9.83967 21.3158 9.70967 21.3158 9.545V1.277C21.3158 1.12967 21.3635 1.00833 21.4588 0.912999C21.5628 0.817666 21.6928 0.77 21.8488 0.77C22.0135 0.77 22.1392 0.817666 22.2258 0.912999C22.3212 0.999666 22.3688 1.121 22.3688 1.277V4.683C22.5768 4.30167 22.8672 4.01133 23.2398 3.812C23.6125 3.61267 24.0372 3.513 24.5138 3.513ZM31.2915 3.513C32.8775 3.513 33.6705 4.345 33.6705 6.009V9.545C33.6705 9.701 33.6228 9.82667 33.5275 9.922C33.4408 10.0173 33.3195 10.065 33.1635 10.065C33.0075 10.065 32.8818 10.0173 32.7865 9.922C32.6912 9.82667 32.6435 9.701 32.6435 9.545V8.921C32.4788 9.29367 32.2275 9.584 31.8895 9.792C31.5515 9.99133 31.1615 10.091 30.7195 10.091C30.3122 10.091 29.9352 10.0087 29.5885 9.844C29.2505 9.67933 28.9818 9.44967 28.7825 9.155C28.5832 8.86033 28.4835 8.53533 28.4835 8.18C28.4835 7.70333 28.6048 7.335 28.8475 7.075C29.0902 6.80633 29.4888 6.61567 30.0435 6.503C30.5982 6.38167 31.3695 6.321 32.3575 6.321H32.6435V5.892C32.6435 5.372 32.5352 4.99067 32.3185 4.748C32.1105 4.50533 31.7682 4.384 31.2915 4.384C30.7022 4.384 30.1042 4.54433 29.4975 4.865C29.2635 5.01233 29.0988 5.086 29.0035 5.086C28.8995 5.086 28.8128 5.047 28.7435 4.969C28.6742 4.891 28.6395 4.79133 28.6395 4.67C28.6395 4.54867 28.6742 4.44467 28.7435 4.358C28.8215 4.26267 28.9428 4.16733 29.1075 4.072C29.4108 3.89867 29.7532 3.76433 30.1345 3.669C30.5245 3.565 30.9102 3.513 31.2915 3.513ZM30.8625 9.259C31.3825 9.259 31.8072 9.08567 32.1365 8.739C32.4745 8.38367 32.6435 7.92867 32.6435 7.374V6.997H32.4095C31.6468 6.997 31.0662 7.03167 30.6675 7.101C30.2688 7.16167 29.9828 7.27 29.8095 7.426C29.6448 7.57333 29.5625 7.79433 29.5625 8.089C29.5625 8.427 29.6838 8.70867 29.9265 8.934C30.1778 9.15067 30.4898 9.259 30.8625 9.259ZM42.9926 10.104C42.1259 10.104 41.3763 9.91767 40.7436 9.545C40.1109 9.16367 39.6213 8.622 39.2746 7.92C38.9366 7.20933 38.7676 6.373 38.7676 5.411C38.7676 4.45767 38.9366 3.63 39.2746 2.928C39.6213 2.21733 40.1109 1.67567 40.7436 1.303C41.3763 0.921666 42.1259 0.730999 42.9926 0.730999C43.5733 0.730999 44.1193 0.826333 44.6306 1.017C45.1506 1.199 45.6013 1.46333 45.9826 1.81C46.1213 1.94 46.1906 2.09167 46.1906 2.265C46.1906 2.38633 46.1559 2.49467 46.0866 2.59C46.0173 2.67667 45.9349 2.72 45.8396 2.72C45.7356 2.72 45.6099 2.67233 45.4626 2.577C45.0206 2.23033 44.6176 1.98767 44.2536 1.849C43.8983 1.71033 43.4866 1.641 43.0186 1.641C42.0133 1.641 41.2376 1.97033 40.6916 2.629C40.1543 3.279 39.8856 4.20633 39.8856 5.411C39.8856 6.62433 40.1543 7.56033 40.6916 8.219C41.2376 8.869 42.0133 9.194 43.0186 9.194C43.4779 9.194 43.8896 9.12467 44.2536 8.986C44.6176 8.84733 45.0206 8.60467 45.4626 8.258C45.6099 8.16267 45.7356 8.115 45.8396 8.115C45.9349 8.115 46.0173 8.15833 46.0866 8.245C46.1559 8.33167 46.1906 8.44 46.1906 8.57C46.1906 8.74333 46.1213 8.895 45.9826 9.025C45.6013 9.37167 45.1506 9.64033 44.6306 9.831C44.1193 10.013 43.5733 10.104 42.9926 10.104ZM50.2465 10.091C49.6485 10.091 49.1198 9.95667 48.6605 9.688C48.2098 9.41933 47.8588 9.038 47.6075 8.544C47.3648 8.04133 47.2435 7.46067 47.2435 6.802C47.2435 6.14333 47.3648 5.567 47.6075 5.073C47.8588 4.57033 48.2098 4.18467 48.6605 3.916C49.1198 3.64733 49.6485 3.513 50.2465 3.513C50.8445 3.513 51.3732 3.64733 51.8325 3.916C52.2918 4.18467 52.6428 4.57033 52.8855 5.073C53.1368 5.567 53.2625 6.14333 53.2625 6.802C53.2625 7.46067 53.1368 8.04133 52.8855 8.544C52.6428 9.038 52.2918 9.41933 51.8325 9.688C51.3732 9.95667 50.8445 10.091 50.2465 10.091ZM50.2465 9.22C50.8705 9.22 51.3472 9.01633 51.6765 8.609C52.0145 8.193 52.1835 7.59067 52.1835 6.802C52.1835 6.03067 52.0145 5.437 51.6765 5.021C51.3385 4.59633 50.8618 4.384 50.2465 4.384C49.6312 4.384 49.1545 4.59633 48.8165 5.021C48.4785 5.437 48.3095 6.03067 48.3095 6.802C48.3095 7.582 48.4742 8.18 48.8035 8.596C49.1415 9.012 49.6225 9.22 50.2465 9.22ZM58.0164 3.513C59.5331 3.513 60.2914 4.34933 60.2914 6.022V9.545C60.2914 9.70967 60.2438 9.83967 60.1484 9.935C60.0618 10.0217 59.9361 10.065 59.7714 10.065C59.6068 10.065 59.4768 10.0217 59.3814 9.935C59.2861 9.83967 59.2384 9.70967 59.2384 9.545V6.087C59.2384 5.49767 59.1214 5.06867 58.8874 4.8C58.6621 4.53133 58.2981 4.397 57.7954 4.397C57.2148 4.397 56.7511 4.57467 56.4044 4.93C56.0578 5.28533 55.8844 5.76633 55.8844 6.373V9.545C55.8844 9.70967 55.8368 9.83967 55.7414 9.935C55.6548 10.0217 55.5291 10.065 55.3644 10.065C55.1998 10.065 55.0698 10.0217 54.9744 9.935C54.8791 9.83967 54.8314 9.70967 54.8314 9.545V4.059C54.8314 3.903 54.8791 3.77733 54.9744 3.682C55.0698 3.58667 55.1998 3.539 55.3644 3.539C55.5204 3.539 55.6418 3.58667 55.7284 3.682C55.8238 3.77733 55.8714 3.89867 55.8714 4.046V4.709C56.0794 4.319 56.3698 4.02433 56.7424 3.825C57.1151 3.617 57.5398 3.513 58.0164 3.513ZM65.1451 9.233C65.4485 9.259 65.6001 9.39767 65.6001 9.649C65.6001 9.79633 65.5438 9.909 65.4311 9.987C65.3271 10.0563 65.1668 10.0823 64.9501 10.065L64.5991 10.039C63.9058 9.987 63.3945 9.779 63.0651 9.415C62.7358 9.051 62.5711 8.50067 62.5711 7.764V4.501H61.7001C61.5528 4.501 61.4358 4.46633 61.3491 4.397C61.2711 4.319 61.2321 4.21933 61.2321 4.098C61.2321 3.968 61.2711 3.864 61.3491 3.786C61.4358 3.708 61.5528 3.669 61.7001 3.669H62.5711V2.2C62.5711 2.03533 62.6188 1.90967 62.7141 1.823C62.8095 1.72767 62.9395 1.68 63.1041 1.68C63.2601 1.68 63.3858 1.72767 63.4811 1.823C63.5765 1.90967 63.6241 2.03533 63.6241 2.2V3.669H65.0671C65.2058 3.669 65.3141 3.708 65.3921 3.786C65.4788 3.864 65.5221 3.968 65.5221 4.098C65.5221 4.21933 65.4788 4.319 65.3921 4.397C65.3141 4.46633 65.2058 4.501 65.0671 4.501H63.6241V7.816C63.6241 8.29267 63.7195 8.63933 63.9101 8.856C64.1095 9.064 64.4041 9.181 64.7941 9.207L65.1451 9.233ZM69.2251 3.513C70.8111 3.513 71.6041 4.345 71.6041 6.009V9.545C71.6041 9.701 71.5564 9.82667 71.4611 9.922C71.3744 10.0173 71.2531 10.065 71.0971 10.065C70.9411 10.065 70.8154 10.0173 70.7201 9.922C70.6248 9.82667 70.5771 9.701 70.5771 9.545V8.921C70.4124 9.29367 70.1611 9.584 69.8231 9.792C69.4851 9.99133 69.0951 10.091 68.6531 10.091C68.2458 10.091 67.8688 10.0087 67.5221 9.844C67.1841 9.67933 66.9154 9.44967 66.7161 9.155C66.5168 8.86033 66.4171 8.53533 66.4171 8.18C66.4171 7.70333 66.5384 7.335 66.7811 7.075C67.0238 6.80633 67.4224 6.61567 67.9771 6.503C68.5318 6.38167 69.3031 6.321 70.2911 6.321H70.5771V5.892C70.5771 5.372 70.4688 4.99067 70.2521 4.748C70.0441 4.50533 69.7018 4.384 69.2251 4.384C68.6358 4.384 68.0378 4.54433 67.4311 4.865C67.1971 5.01233 67.0324 5.086 66.9371 5.086C66.8331 5.086 66.7464 5.047 66.6771 4.969C66.6078 4.891 66.5731 4.79133 66.5731 4.67C66.5731 4.54867 66.6078 4.44467 66.6771 4.358C66.7551 4.26267 66.8764 4.16733 67.0411 4.072C67.3444 3.89867 67.6868 3.76433 68.0681 3.669C68.4581 3.565 68.8438 3.513 69.2251 3.513ZM68.7961 9.259C69.3161 9.259 69.7408 9.08567 70.0701 8.739C70.4081 8.38367 70.5771 7.92867 70.5771 7.374V6.997H70.3431C69.5804 6.997 68.9998 7.03167 68.6011 7.101C68.2024 7.16167 67.9164 7.27 67.7431 7.426C67.5784 7.57333 67.4961 7.79433 67.4961 8.089C67.4961 8.427 67.6174 8.70867 67.8601 8.934C68.1114 9.15067 68.4234 9.259 68.7961 9.259Z" fill="#7A7A7A"/>
</svg>
